<?xml version="1.0" standalone="no"?>
<!DOCTYPE svg PUBLIC "-//W3C//DTD SVG 20010904//EN"
 "http://www.w3.org/TR/2001/REC-SVG-20010904/DTD/svg10.dtd">
<svg version="1.0" xmlns="http://www.w3.org/2000/svg"
 width="300.000000pt" height="300.000000pt" viewBox="0 0 300.000000 300.000000"
 preserveAspectRatio="xMidYMid meet">
<metadata>
Created by potrace 1.10, written by Peter Selinger 2001-2011
</metadata>
<g transform="translate(0.000000,300.000000) scale(0.050000,-0.050000)"
fill="#fff" stroke="none">
<path d="M680 3402 c0 -262 0 -262 47 -262 44 0 47 6 38 100 -9 91 -6 100 32
100 31 0 56 -28 93 -100 40 -79 61 -100 100 -100 l50 0 -63 101 -62 101 43 45
c112 121 29 252 -170 269 l-108 9 0 -263z m208 166 c82 -31 23 -168 -72 -168
-53 0 -56 5 -56 90 0 94 34 114 128 78z"/>
<path d="M1478 3646 c-17 -134 5 -497 31 -502 17 -4 31 3 31 15 0 16 11 16 39
2 160 -86 314 101 200 245 -55 70 -105 82 -180 44 l-63 -33 7 116 c6 98 1 117
-28 123 -19 4 -36 0 -37 -10z m243 -288 c51 -94 -53 -203 -131 -138 -36 30
-39 123 -6 156 38 38 112 28 137 -18z"/>
<path d="M3162 3409 c-142 -295 -135 -269 -74 -269 34 0 51 14 60 50 12 46 21
50 133 50 110 0 122 -4 139 -50 13 -35 34 -50 68 -50 49 0 47 4 -72 255 -67
140 -124 258 -126 261 -3 3 -60 -108 -128 -247z m190 -83 c-4 -5 -39 -6 -76
-2 l-69 6 38 88 39 88 38 -86 c21 -47 35 -90 30 -94z"/>
<path d="M1186 3460 c-111 -46 -136 -223 -41 -289 43 -30 196 -43 220 -19 34
34 -12 63 -84 54 -64 -9 -81 -4 -100 32 -22 41 -19 42 101 42 l123 0 -13 65
c-21 105 -110 155 -206 115z m130 -105 c6 -29 -8 -35 -75 -35 -84 0 -99 14
-56 57 35 35 123 20 131 -22z"/>
<path d="M2000 3466 c-177 -65 -147 -326 38 -326 92 0 137 31 160 112 37 132
-79 258 -198 214z m117 -118 c20 -43 19 -62 -7 -100 -54 -84 -150 -50 -150 52
0 106 115 141 157 48z"/>
<path d="M2394 3446 c-21 -22 -34 -25 -34 -10 0 13 -18 24 -40 24 -37 0 -40
-13 -40 -160 0 -145 4 -160 39 -160 33 0 40 16 45 114 5 103 11 115 56 126 32
7 52 28 56 56 8 53 -33 58 -82 10z"/>
<path d="M2694 3467 c-8 -7 -45 -12 -84 -11 l-70 3 0 -128 c0 -70 -5 -142 -12
-159 -9 -24 0 -32 39 -32 48 0 51 7 57 113 11 205 136 212 136 8 0 -108 4
-121 40 -121 48 0 60 227 15 284 -29 37 -102 63 -121 43z"/>
<path d="M3660 3466 c-70 -26 -100 -73 -100 -159 0 -138 106 -208 221 -146 32
17 39 14 39 -15 -1 -76 -70 -116 -148 -87 -38 15 -51 11 -61 -14 -31 -79 163
-92 240 -16 69 69 76 431 9 431 -22 0 -40 -10 -40 -21 0 -12 -20 -8 -44 10
-47 32 -66 35 -116 17z m148 -130 c32 -92 -78 -178 -144 -112 -31 31 -31 121
1 153 42 42 122 19 143 -41z"/>
<path d="M4069 3461 c-114 -47 -133 -245 -28 -301 44 -24 193 -27 207 -4 20
33 -20 55 -98 55 -60 -1 -81 8 -86 34 -6 30 9 35 105 35 104 0 111 3 111 48 0
98 -118 172 -211 133z m127 -106 c6 -28 -7 -35 -65 -35 -67 0 -94 31 -57 68
27 26 116 3 122 -33z"/>
<path d="M4464 3449 c-24 -18 -44 -22 -44 -10 0 11 -13 21 -30 21 -23 0 -30
-26 -30 -115 0 -63 -6 -135 -13 -160 -10 -38 -4 -45 41 -45 50 0 53 4 49 99
-4 106 25 161 83 161 46 0 60 -39 60 -162 0 -85 5 -98 40 -98 86 0 42 304 -47
328 -59 16 -59 16 -109 -19z"/>
<path d="M4840 3466 c-109 -40 -141 -206 -55 -286 54 -51 205 -51 205 0 0 21
-17 28 -57 24 -76 -8 -113 27 -113 107 0 72 46 103 118 80 52 -17 72 42 23 69
-41 22 -74 23 -121 6z"/>
<path d="M5040 3443 c0 -10 27 -82 60 -162 56 -137 58 -148 30 -215 -39 -91
-38 -106 6 -106 34 0 70 78 216 467 11 30 5 35 -34 30 -39 -6 -54 -27 -78
-112 -37 -131 -45 -131 -87 5 -31 98 -113 165 -113 93z"/>
</g>
</svg>
